<svg xmlns="http://www.w3.org/2000/svg" width="172.389" height="122.582" version="1.0"><rect width="100%" height="100%" fill="#fff"/><g style="fill:red"><path d="M9.3 42.256h57.575M20.208 26.552h7.225v6.482h-7.225zM49.031 26.285V32.9h7.298v-6.615Z" style="fill:none;stroke:#000;stroke-width:1.20897;stroke-linecap:butt;stroke-linejoin:miter;stroke-miterlimit:4;stroke-dasharray:none;stroke-opacity:1" transform="matrix(2.38667 0 0 2.58 -4.916 -4.499)"/><path d="M10.383 39.517h55.408S64.78 13.655 38.485 13.655c-26.294 0-28.102 25.862-28.102 25.862z" style="fill:none;stroke:#000;stroke-width:1.20897;stroke-linecap:butt;stroke-linejoin:miter;stroke-miterlimit:4;stroke-dasharray:none;stroke-opacity:1" transform="matrix(2.38667 0 0 2.58 -4.916 -4.499)"/><path d="M32.2 39.517V26.285h11.92v13.232z" style="fill:none;stroke:#000;stroke-width:1.20897;stroke-linecap:butt;stroke-linejoin:miter;stroke-miterlimit:4;stroke-dasharray:none;stroke-opacity:1" transform="matrix(2.38667 0 0 2.58 -4.916 -4.499)"/><path d="M38.27 13.521V4.834" style="fill:none;stroke:#000;stroke-width:1.20897;stroke-linecap:round;stroke-linejoin:miter;stroke-miterlimit:4;stroke-dasharray:none;stroke-opacity:1" transform="matrix(2.38667 0 0 2.58 -4.916 -4.499)"/><path d="M38.308 6.144c1.124.543 2.682-.662 4.188-.614 1.507.047 1.865.732 1.865.732v3.78s-.818-.756-1.84-.732c-1.02.024-3.396 1.11-4.162.401" style="fill:none;stroke:#000;stroke-width:1.20897;stroke-linecap:round;stroke-linejoin:round;stroke-miterlimit:4;stroke-dasharray:none;stroke-opacity:1" transform="matrix(2.38667 0 0 2.58 -4.916 -4.499)"/></g></svg>